<svg data-name="Horizontal on Light" xmlns="http://www.w3.org/2000/svg" viewBox="0 0 1276.98 194.84"><title>Assurance_Horiz_RGB_OnLight</title><path d="M394.49 117.34c5 9.92 13.14 14.81 24.46 14.81 12.16 0 16.5-6.43 16.5-12.72 0-4.33-1.54-7.27-5.59-9.92s-7-4-14.26-6.71c-9-3.35-14.12-5.87-19.71-10.34-5.59-4.62-8.24-10.9-8.24-19.15a23.81 23.81 0 0 1 8.66-19c5.87-4.89 13-7.27 21.52-7.27 13.28 0 23.35 5.31 30.05 15.8l-12.43 8.52c-3.78-5.73-9.51-8.66-17.34-8.66s-13.27 4.33-13.27 10.34c0 4.05 1.67 6 4 8.39 1.54 1.11 5.45 2.79 7.27 3.77l5 2 5.78 2.22c9.23 3.78 15.79 7.83 19.85 12.16s6.15 10.21 6.15 17.47c0 17.2-11.88 28.8-34.11 28.8-18 0-31.3-8.39-37.46-22.23zm106.65 0c5 9.92 13.14 14.81 24.46 14.81 12.16 0 16.5-6.43 16.5-12.72 0-4.33-1.54-7.27-5.59-9.92s-7-4-14.26-6.71c-9-3.35-14.12-5.87-19.71-10.34-5.59-4.62-8.25-10.9-8.25-19.15a23.82 23.82 0 0 1 8.67-19c5.87-4.89 13-7.27 21.52-7.27 13.28 0 23.35 5.31 30 15.8l-12.43 8.52c-3.78-5.73-9.51-8.66-17.34-8.66s-13.22 4.32-13.22 10.33c0 4.05 1.67 6 4 8.39 1.54 1.11 5.45 2.79 7.27 3.77l5 2 5.73 2.23c9.22 3.78 15.79 7.83 19.85 12.16s6.15 10.17 6.15 17.43c0 17.2-11.88 28.8-34.1 28.8-18 0-31.31-8.39-37.46-22.23zm673-52.84l-11.88 10.21c-7-8-15.94-11.88-26.7-11.88-9.78 0-18 3.35-24.6 9.92s-9.78 14.81-9.78 24.74 3.21 18.17 9.78 24.74 14.82 9.78 24.6 9.78c11 0 20.13-4 27-12.16l11.75 10.21a50.55 50.55 0 0 1-38.82 17.75c-14.4 0-26.7-4.75-36.76-14.26s-15-21.66-15-36.06 5-26.42 15-36.06 22.36-14.4 36.76-14.4c15.55 0 28.41 5.87 38.62 17.47zM661.43 48.71v58.28c0 16.78-8.39 24.88-21.94 24.88-13.84 0-22.09-8.1-22.09-24.88V48.71h-26l8.53 18.13v42c0 12.44 3.64 22.08 11 28.79s16.96 10.04 28.56 10.04 21-3.36 28.37-10.07 11-16.35 11-28.79v-60.1zm114.47 58.56c10.63-4.47 17.75-15 17.75-27.67a29 29 0 0 0-9.22-21.95 30.68 30.68 0 0 0-22.36-8.94h-46.41l8.53 18.13v79.29h17.47V64.5h20c8.38 0 14.68 6.43 14.68 15.38 0 9.36-6.57 15.93-16.08 15.93h-10.67l30.23 50.32h19.67zm455.51 23.06V103.5h41.79V87.71h-41.79V64.5H1276V48.71h-70.59l8.53 18.13v79.29h63v-15.8zm-188.08-81.62h-17.48v68l-47.7-68h-27.22l8.53 18.13v79.29h17.48v-68l47.7 68h18.69zm-789.48 97.42h18.46l8.53-18.87h42.32l8.53 18.87h18.46l-45.91-97.42h-16.58l5.92 13.11zm62.49-34h-28.68L302 80.42zm512.07 34h18.46l8.53-18.87h42.32l8.53 18.87h18.46L878.8 48.71h-16.58l5.92 13.11zm62.49-34h-28.68l14.34-31.71z" fill="#051f2c"/><path d="M83.85 0l-72.3 125.23 5.54 9.6L94.93 0zm-23.1 0L0 105.23l5.54 9.59L71.83 0zm46.2 0L23.1 145.24l5.54 9.59L118.03 0zm57.28 0h-11.08l-107 185.25 5.54 9.59zm-34.18 0l-95.4 165.24 5.54 9.6L141.13 0z" fill="#0082cb"/><path d="M118.49 100.02l54.74 94.82 5.54-9.59-54.73-94.83zm11.55-20l54.74 94.81 5.54-9.59-54.73-94.82zm40.2-69.6l-5.54 9.59 54.79 94.81 5.54-9.59zm-28.64 49.6l54.74 94.82 5.54-9.59-54.74-94.83zm11.55-20l54.74 94.82 5.54-9.6-54.74-94.82z" fill="#582c83"/><path d="M86.86 194.84h11.07l14.56-25.21 14.56 25.21h11.07l-25.63-44.42zm25.63-84.42l-48.73 84.4h11.07l37.66-65.2 37.65 65.22h11.08z" fill="#fd4338"/></svg>